<svg id="SvgjsSvg1017" width="288" height="288" xmlns="http://www.w3.org/2000/svg" version="1.1" xmlns:xlink="http://www.w3.org/1999/xlink" xmlns:svgjs="http://svgjs.com/svgjs"><defs id="SvgjsDefs1018"></defs><g id="SvgjsG1019"><svg xmlns="http://www.w3.org/2000/svg" viewBox="0 0 50 50" width="288" height="288"><path fill="none" stroke="#d7d6f5" stroke-miterlimit="10" stroke-width="2" d="M37.43 25.5v13.84c0 1.49-1.21 2.7-2.7 2.7h-4.41c-.23 0-.42-.19-.42-.42V34.4c0-1.28-.52-2.45-1.37-3.29-1.64-1.66-4.54-2.07-7.09.23-.48.44-.87 1.34-.87 2v7.82c0 .7-.19.89-.42.89h-4.41c-1.48 0-2.7-1.21-2.7-2.7V25.48c0-1.49 1.21-2.7 2.7-2.7h18.97c1.51.01 2.72 1.22 2.72 2.72zM23.61 8.02 12 15.65c-1.17.77-.62 2.58.77 2.58h24.95c1.4 0 1.94-1.82.77-2.58L26.88 8.02c-.99-.65-2.28-.65-3.27 0z" class="colorStroke000 svgStroke"></path></svg></g></svg>